<svg xmlns="http://www.w3.org/2000/svg" viewBox="0 0 50 49.999"><circle cx="25" cy="24.969" r="24.969" style="fill:#fff"/><path d="M50,25A25,25,0,1,0,21.094,49.7V32.226H14.746V25h6.348V19.492c0-6.266,3.732-9.726,9.443-9.726a38.485,38.485,0,0,1,5.6.488v6.152H32.98c-3.106,0-4.074,1.927-4.074,3.9V25H35.84l-1.108,7.227H28.906V49.7A25.006,25.006,0,0,0,50,25Z" style="fill:#1877f2"/><path d="M34.742,32.2l1.11-7.236H28.91v-4.7c0-1.98.97-3.909,4.079-3.909h3.156V10.2a38.486,38.486,0,0,0-5.6-.489c-5.718,0-9.455,3.465-9.455,9.739v5.515H14.732V32.2h6.356V49.7a25.33,25.33,0,0,0,7.822,0V32.2Z" style="fill:#fff"/></svg>