<svg xmlns="http://www.w3.org/2000/svg" viewBox="0 0 50 50"><defs><style>.cls-1{fill:#00b900}</style></defs><circle cx="25" cy="25" r="25" class="cls-1"/><path d="M42.192 23.549c0-7.632-7.652-13.842-17.057-13.842S8.078 15.917 8.078 23.549c0 6.843 6.068 12.573 14.265 13.656.556.12 1.312.366 1.5.841a3.491 3.491 0 0 1 .055 1.542s-.2 1.2-.243 1.46c-.074.431-.343 1.686 1.477.92s9.823-5.784 13.4-9.9a12.316 12.316 0 0 0 3.656-8.517" style="fill:#fff"/><path d="M21.669 19.856h-1.2a.332.332 0 0 0-.332.332v7.432a.332.332 0 0 0 .332.332h1.2A.332.332 0 0 0 22 27.62v-7.432a.332.332 0 0 0-.332-.332" class="cls-1"/><path d="M29.905 19.856h-1.2a.332.332 0 0 0-.332.332V24.6L24.967 20l-.026-.034-.02-.021-.006-.006-.018-.015-.009-.007-.017-.012-.01-.006-.018-.01h-.011l-.019-.008H24.8l-.02-.006h-1.286a.332.332 0 0 0-.332.332v7.432a.332.332 0 0 0 .332.332h1.2a.333.333 0 0 0 .333-.331v-4.416l3.41 4.606a.327.327 0 0 0 .084.082l.021.012h.009l.016.008.016.007h.01l.023.007a.306.306 0 0 0 .085.012h1.2a.332.332 0 0 0 .332-.332V20.2a.332.332 0 0 0-.332-.332" class="cls-1"/><path d="M18.785 26.1h-3.251v-5.9a.332.332 0 0 0-.332-.332H14a.333.333 0 0 0-.333.332v7.432a.33.33 0 0 0 .093.229.33.33 0 0 0 .23.093h4.78a.332.332 0 0 0 .332-.332v-1.2a.332.332 0 0 0-.331-.333" class="cls-1"/><path d="M36.512 21.722a.332.332 0 0 0 .332-.332v-1.2a.332.332 0 0 0-.331-.333h-4.781a.329.329 0 0 0-.23.094l-.006.006a.332.332 0 0 0-.092.229v7.431a.332.332 0 0 0 .093.229.33.33 0 0 0 .229.093h4.78a.332.332 0 0 0 .332-.332v-1.2a.332.332 0 0 0-.332-.332h-3.251v-1.252h3.251a.332.332 0 0 0 .332-.332v-1.2a.333.333 0 0 0-.331-.333h-3.252V21.7Z" class="cls-1"/></svg>