<svg xmlns="http://www.w3.org/2000/svg" viewBox="0 0 50 50"><path d="M0 0h50v50H0Z" style="fill:none"/><path d="M16.789 42.478c16.2 0 25.053-13.417 25.053-25.053 0-.381 0-.76-.026-1.138a17.926 17.926 0 0 0 4.393-4.558 17.571 17.571 0 0 1-5.057 1.385 8.833 8.833 0 0 0 3.871-4.87 17.635 17.635 0 0 1-5.591 2.137 8.813 8.813 0 0 0-15.005 8.031 25 25 0 0 1-18.147-9.2 8.812 8.812 0 0 0 2.726 11.754 8.742 8.742 0 0 1-4-1.1v.112a8.808 8.808 0 0 0 7.064 8.631 8.787 8.787 0 0 1-3.976.151 8.815 8.815 0 0 0 8.226 6.115A17.665 17.665 0 0 1 5.389 38.65a17.974 17.974 0 0 1-2.1-.127 24.926 24.926 0 0 0 13.5 3.948" style="fill:#1da1f2"/></svg>