<svg width="40" height="40" viewBox="0 0 40 40" fill="none" xmlns="http://www.w3.org/2000/svg">
<g clip-path="url(#clip0_3519_3787)">
<path d="M30.9825 0H9.0175C4.03727 0 0 4.03727 0 9.0175V30.9825C0 35.9627 4.03727 40 9.0175 40H30.9825C35.9627 40 40 35.9627 40 30.9825V9.0175C40 4.03727 35.9627 0 30.9825 0Z" fill="#06C755"/>
<path d="M33.3325 18.115C33.3325 12.1475 27.35 7.29248 19.9963 7.29248C12.6425 7.29248 6.66003 12.1475 6.66003 18.115C6.66003 23.465 11.405 27.945 17.8138 28.7925C18.2475 28.8862 18.8388 29.0787 18.9888 29.45C19.1238 29.7875 19.0763 30.315 19.0325 30.6562C19.0325 30.6562 18.8763 31.5975 18.8425 31.7975C18.7838 32.135 18.575 33.1162 19.9975 32.5162C21.4213 31.9162 27.6775 27.9937 30.475 24.7737C32.4075 22.6537 33.3338 20.5037 33.3338 18.115H33.3325Z" fill="white"/>
<path d="M28.8951 21.5614H25.1488C25.0075 21.5614 24.8938 21.4477 24.8938 21.3064V21.3027V15.4927V15.4864C24.8938 15.3452 25.0075 15.2314 25.1488 15.2314H28.8951C29.035 15.2314 29.15 15.3464 29.15 15.4864V16.4327C29.15 16.5739 29.0363 16.6877 28.8951 16.6877H26.3488V17.6702H28.8951C29.035 17.6702 29.15 17.7852 29.15 17.9252V18.8714C29.15 19.0127 29.0363 19.1264 28.8951 19.1264H26.3488V20.1089H28.8951C29.035 20.1089 29.15 20.2239 29.15 20.3639V21.3102C29.15 21.4514 29.0363 21.5652 28.8951 21.5652V21.5614Z" fill="#06C755"/>
<path d="M15.0363 21.5612C15.1763 21.5612 15.2913 21.4475 15.2913 21.3062V20.36C15.2913 20.22 15.1763 20.105 15.0363 20.105H12.4901V15.485C12.4901 15.345 12.3751 15.23 12.2351 15.23H11.2888C11.1476 15.23 11.0338 15.3437 11.0338 15.485V21.3012V21.3062C11.0338 21.4475 11.1476 21.5612 11.2888 21.5612H15.0351H15.0363Z" fill="#06C755"/>
<path d="M17.2913 15.2314H16.3463C16.2055 15.2314 16.0913 15.3456 16.0913 15.4864V21.3064C16.0913 21.4473 16.2055 21.5614 16.3463 21.5614H17.2913C17.4321 21.5614 17.5463 21.4473 17.5463 21.3064V15.4864C17.5463 15.3456 17.4321 15.2314 17.2913 15.2314Z" fill="#06C755"/>
<path d="M23.73 15.2314H22.7838C22.6425 15.2314 22.5288 15.3452 22.5288 15.4864V18.9427L19.8663 15.3464C19.86 15.3377 19.8526 15.3289 19.8463 15.3202C19.8463 15.3202 19.8463 15.3202 19.845 15.3189C19.84 15.3139 19.835 15.3077 19.83 15.3027C19.8288 15.3014 19.8263 15.3002 19.8251 15.2989C19.8201 15.2952 19.8163 15.2914 19.8113 15.2877C19.8088 15.2864 19.8063 15.2839 19.8038 15.2827C19.8 15.2789 19.7951 15.2764 19.7901 15.2739C19.7876 15.2727 19.785 15.2702 19.7825 15.2689C19.7775 15.2664 19.7738 15.2639 19.7688 15.2614C19.7663 15.2602 19.7638 15.2589 19.7613 15.2577C19.7563 15.2552 19.7513 15.2527 19.7463 15.2514C19.7438 15.2514 19.7413 15.2489 19.7375 15.2489C19.7325 15.2477 19.7275 15.2452 19.7225 15.2439C19.72 15.2439 19.7163 15.2427 19.7138 15.2414C19.7088 15.2414 19.7038 15.2389 19.6988 15.2377C19.695 15.2377 19.6913 15.2377 19.6875 15.2364C19.6825 15.2364 19.6788 15.2352 19.6738 15.2352C19.6688 15.2352 19.665 15.2352 19.66 15.2352C19.6575 15.2352 19.6538 15.2352 19.6513 15.2352H18.7113C18.5713 15.2352 18.4563 15.3489 18.4563 15.4902V21.3102C18.4563 21.4502 18.57 21.5652 18.7113 21.5652H19.6575C19.7988 21.5652 19.9125 21.4514 19.9125 21.3102V17.8539L22.5788 21.4552C22.5976 21.4814 22.62 21.5027 22.6451 21.5189C22.6451 21.5189 22.6475 21.5202 22.6475 21.5214C22.6525 21.5252 22.6575 21.5277 22.6638 21.5314C22.6663 21.5327 22.6688 21.5339 22.6713 21.5352C22.675 21.5377 22.68 21.5389 22.6838 21.5414C22.6875 21.5439 22.6926 21.5452 22.6963 21.5464C22.6988 21.5464 22.7013 21.5489 22.7038 21.5489C22.7101 21.5514 22.7151 21.5527 22.7213 21.5539C22.7213 21.5539 22.7238 21.5539 22.725 21.5539C22.7463 21.5589 22.7688 21.5627 22.7913 21.5627H23.7313C23.8713 21.5627 23.9863 21.4489 23.9863 21.3077V15.4877C23.9863 15.3477 23.8726 15.2327 23.7313 15.2327L23.73 15.2314Z" fill="#06C755"/>
</g>
<defs>
<clipPath id="clip0_3519_3787">
<rect width="40" height="40" fill="white"/>
</clipPath>
</defs>
</svg>
